<?xml version="1.0" standalone="no"?><!DOCTYPE svg PUBLIC "-//W3C//DTD SVG 1.1//EN" "http://www.w3.org/Graphics/SVG/1.1/DTD/svg11.dtd"><svg t="1606310693312" class="icon" viewBox="0 0 1024 1024" version="1.1" xmlns="http://www.w3.org/2000/svg" p-id="2143" xmlns:xlink="http://www.w3.org/1999/xlink" width="32" height="32"><defs><style type="text/css"></style></defs><path d="M512 0C229.57056 0 0 229.57056 0 512s229.57056 512 512 512 512-229.57056 512-512S794.42944 0 512 0z m0 792.41216a36.5568 36.5568 0 0 1-36.5568-36.5568c0-20.1216 16.31232-36.66944 36.5568-36.66944a36.5568 36.5568 0 0 1 36.5568 36.5568c0 20.11136-16.31232 36.6592-36.5568 36.6592z m36.5568-182.8864A36.5568 36.5568 0 0 1 512 646.06208a36.63872 36.63872 0 0 1-36.5568-36.5568V268.14464a36.5568 36.5568 0 0 1 36.5568-36.5568 36.63872 36.63872 0 0 1 36.5568 36.5568v341.37088z" fill="#EE555B" p-id="2144"></path></svg>