<?xml version="1.0" standalone="no"?><!DOCTYPE svg PUBLIC "-//W3C//DTD SVG 1.1//EN" "http://www.w3.org/Graphics/SVG/1.1/DTD/svg11.dtd"><svg t="1606310669777" class="icon" viewBox="0 0 1025 1024" version="1.1" xmlns="http://www.w3.org/2000/svg" p-id="1856" xmlns:xlink="http://www.w3.org/1999/xlink" width="32.03125" height="32"><defs><style type="text/css"></style></defs><path d="M747.631825 365.828393l-89.460218-89.460218c-6.390016-6.390016-19.170047-6.390016-31.950078 0L511.201248 397.778471 396.180967 276.368175c-12.780031-6.390016-25.560062-6.390016-31.950078 0L274.770671 365.828393c-6.390016 6.390016-6.390016 19.170047 0 31.950078L396.180967 512.798752 274.770671 627.819033c-6.390016 6.390016-6.390016 19.170047 0 31.950078l89.460218 89.460218c6.390016 6.390016 19.170047 6.390016 31.950078 0L511.201248 627.819033l115.020281 115.020281c6.390016 6.390016 19.170047 6.390016 31.950078 0l89.460218-89.460219c6.390016-6.390016 6.390016-19.170047 0-31.950078L626.221529 512.798752l115.020281-115.020281c12.780031-12.780031 12.780031-25.560062 6.390015-31.950078z" fill="#FFFFFF" p-id="1857"></path><path d="M875.432137 148.567863C677.341654-49.522621 351.450858-49.522621 153.360374 148.567863c-198.090484 198.090484-198.090484 523.981279 0 722.071763 198.090484 198.090484 523.981279 198.090484 722.071763 0 198.090484-198.090484 198.090484-517.591264 0-722.071763z m-127.800312 479.25117c6.390016 6.390016 6.390016 19.170047 0 31.950078l-89.460218 89.460218c-6.390016 6.390016-19.170047 6.390016-31.950078 0L511.201248 627.819033l-115.020281 115.020281c-6.390016 6.390016-19.170047 6.390016-31.950078 0l-89.460218-89.460219c-6.390016-6.390016-6.390016-19.170047 0-31.950078L396.180967 512.798752 274.770671 397.778471c-6.390016-12.780031-6.390016-25.560062 0-31.950078l89.460218-89.460218c6.390016-6.390016 19.170047-6.390016 31.950078 0L511.201248 397.778471l115.020281-115.020281c6.390016-6.390016 19.170047-6.390016 31.950078 0l89.460218 89.460219c6.390016 6.390016 6.390016 19.170047 0 31.950078L626.221529 512.798752l121.410296 115.020281z" fill="#EA102A" p-id="1858"></path></svg>