<?xml version="1.0" standalone="no"?><!DOCTYPE svg PUBLIC "-//W3C//DTD SVG 1.1//EN" "http://www.w3.org/Graphics/SVG/1.1/DTD/svg11.dtd"><svg t="1606215651200" class="icon" viewBox="0 0 1347 1024" version="1.1" xmlns="http://www.w3.org/2000/svg" p-id="31957" xmlns:xlink="http://www.w3.org/1999/xlink" width="42.09375" height="32"><defs><style type="text/css"></style></defs><path d="M111.723789 0h1123.920843c28.725895 0 54.514526 11.587368 77.392842 34.762105 22.905263 23.174737 34.330947 49.771789 34.330947 79.764211v794.947368c0 29.992421-11.452632 56.589474-34.330947 79.764211-22.878316 23.174737-48.666947 34.762105-77.392842 34.762105H111.723789c-28.725895 0-54.514526-11.587368-77.392842-34.762105C11.425684 966.063158 0 939.466105 0 909.473684V114.526316c0-29.992421 11.452632-56.589474 34.330947-79.764211C57.209263 11.587368 82.997895 0 111.723789 0zM786.054737 170.442105V227.705263h449.562947V170.442105H786.081684z m0 114.526316v55.91579h449.562947v-55.91579H786.081684z m0 113.178947V455.410526h393.027368v-57.263158H786.081684z m-336.518737 222.261895c-41.256421 0-87.04 6.817684-137.296842 20.453053-56.535579 15.440842-102.292211 35.435789-137.269895 59.984842-42.199579 28.186947-63.272421 59.984842-63.272421 95.447579v57.263158H786.054737V796.294737c0-35.462737-20.641684-67.260632-61.925053-95.447579-35.893895-24.522105-81.650526-44.544-137.296842-59.984842-51.146105-13.635368-96.902737-20.48-137.296842-20.48z m0-449.967158a163.139368 163.139368 0 0 0-84.803368 23.174737 168.151579 168.151579 0 0 0-61.224421 62.032842 168.744421 168.744421 0 0 0-22.204632 85.234527c0 30.908632 7.383579 59.553684 22.204632 85.90821a161.684211 161.684211 0 0 0 61.224421 62.032842 166.885053 166.885053 0 0 0 84.803368 22.501053 163.301053 163.301053 0 0 0 84.129684-22.501053 168.151579 168.151579 0 0 0 61.251369-62.032842c15.252211-26.381474 22.905263-54.999579 22.905263-85.90821a164.917895 164.917895 0 0 0-22.905263-85.234527 175.238737 175.238737 0 0 0-61.251369-62.032842 159.636211 159.636211 0 0 0-84.129684-23.174737z" p-id="31958"></path></svg>