<?xml version="1.0" standalone="no"?><!DOCTYPE svg PUBLIC "-//W3C//DTD SVG 1.1//EN" "http://www.w3.org/Graphics/SVG/1.1/DTD/svg11.dtd"><svg t="1606215730705" class="icon" viewBox="0 0 1024 1024" version="1.1" xmlns="http://www.w3.org/2000/svg" p-id="34060" xmlns:xlink="http://www.w3.org/1999/xlink" width="32" height="32"><defs><style type="text/css"></style></defs><path d="M803.84 186.4448v642.8928c0 39.3728-32.8192 70.8608-74.24 70.8608H306.3552c-41.6 0-75.6224-31.6672-75.6224-70.8608V186.4448c0-39.2192 34.0224-70.8864 75.6224-70.8864H729.6c41.4208 0 74.24 31.488 74.24 70.8864z m-76.8 451.4816V187.904H306.7392v450.048H727.04z m0-451.4816v1.4336c0.2048 0 0-0.1792 0-1.4336z m0 523.776H306.688v117.6576H727.04v-117.632z m-206.5664 102.912c-25.4976 0-46.4128-19.6608-46.4128-44.032 0-24.3968 20.9152-44.0832 46.4128-44.0832 25.5232 0 46.3872 19.6864 46.3872 44.0576 0 24.3968-20.864 44.0832-46.3872 44.0832z" p-id="34061"></path></svg>